<svg width="77" height="99" xmlns="http://www.w3.org/2000/svg" class="flower"><path d="M76.821 31.858l-.645-2.775c.943-.943 1.242-2.589 0-2.9-.125-.179.125-.34.197-.519.287-.734-.197-1.324-.573-1.861-1.003.071.018-.859-.394-1.235-1.182-.018-.287-.984-.896-1.539-.269-.125-.716-.304-.914-.072-.161-.322.036-.859.072-1.289-.143-.358-.448-.805-.842-.966-.985.268-.233-1.199-1.093-1.414-.448-.197-.86-.197-1.29 0-.152-1.468-1.684-1.665-2.382-1.217 0 0-.55-2.582-1.809-1.808-.197-.358-.376-.788-.716-1.038-.537-.304-1.29-.322-1.809.072l-.448-.519c-.43-.358-.931.447-1.29.072-.43-.072-1.218-.215-1.54.376-.251-.376-.34-.823-.716-1.145-.815-.533-1.43-.177-1.681.014-.509.389-.727-.435-1.346-.605-.77-.215-1.54.054-2.006.645-1.394-.44-1.865.565-2.508 1.557-.159-.792-1.233-1.153-1.863-.967-.609.161-1.128.626-1.29 1.217-.233.716-.86-.233-1.29-.071-1.22.407-.931.657-1.148 1.391-.281.949-1.673.613-2.148 1.455-.197-.429-.34-.895-.645-1.289.143-.358.269-.77.125-1.163-.86-.591-.197-1.342-.573-2.13-.842-.394.036-1.164-.322-1.808-.143-.322-.484-.447-.842-.376-.305-.197.054-.43-.072-.716-.072-.716-.878-.824-1.415-1.02.161-.322.287-.716.269-1.038-.305-.662-.842.036-1.164-.197v-.519c-.197-.626-.931-.394-1.361-.447 0-.358.269-.752.072-1.02-.287-.233-.519.125-.77.179l-.322-.644c-.788-.967-1.54.698-2.006-.645-.269-.107-.519-.054-.77.197-.466.018-.125-.788-.591-1.02-.502-.215-.985.072-1.415.25-.036-.322-.161-.662-.376-.841-1.075-.072-1.523 1.271-2.257 1.736-1.146-.197-.645-1.665-1.612-2.058-1.29.662-1.29-1.289-2.454-1.289-.699.77-.914-.805-1.737-.447-.752.734-1.021-.555-1.684-.394-.376.268-.86.251-1.164.644-.161-.322-.519-.447-.896-.376-.609.072-1.021.287-1.415.698-.197-.34-.645-.09-.914-.251-.591.251-.914.752-1.218 1.289-.806-.161-1.576.465-2.06 1.163.018.859-.734.555-1.236.895-.161-.519-.537-.931-.896-1.342-.197-.125-.484-.179-.591.054-.072 1.074-.914-.036-1.343.591-1.003 1.629.107 3.455.896 4.761-1.218-.68-1.505-1.861-2.257-2.971-.287-.125-.645.108-.77.394-.251-.304-.412-.645-.896-.519-.806.197-.86 1.038-.967 1.683-.34-.036-.609.268-.842.519-.869-.488-1.54.071-1.612.77-.448.018-.931-.089-1.236.322-.287.537 0 1.02 0 1.539-.842.358-1.451 1.217-1.612 2.13-.502-.089-.824.376-1.093.716-.179.662.036 1.307.322 1.861l-.645.519c-.376.752.591 1.11.914 1.665l-.519.591c-1.128 1.217.716 2.309-.197 3.472-.843 1.096.586 1.879 1.487 1.879-.107.824.842.77 1.29 1.146.179.537.519 1.235 1.164 1.36-.411 1.094.435 2.856 1.469 2.578.699.107.054.698.072 1.038-.143.662-.09 1.146.448 1.611.931.018 1.003 1.074 1.684 1.611 1.236-.698.824.949 1.54 1.289.716.376 2.485.667 3.296-.519.13.761 1.003.913 1.29.841l.054.895c.448 1.038 1.343.429 2.132.644-.188.505.34 1.7.967 1.933 1.039-.018 1.505-.609 2.257-1.289.962 1.012 2.531.879 2.973-.072l.197.143c.412.161 1.003-.036 1.343-.465 1.194 6.169 7.344 18.043 7.416 18.83-6.017-6.262-10.224-5.051-14.293-5.93-1.88-.406-7.955-1.839-10.115-2.847-.518-.241-2.882-2.11-.815.482 1.525 1.912 3.389 3.461 5.303 5.073 3.743 1.752 7.85 2.693 11.791 3.849 3.005.881 8.299 3.154 9.998 6.801.658 1.412 1.042 4.197.872 5.992-.112 1.182-.47 2.259-.611 3.46-.287 1.271.072 2.559.125 3.741-1.612-3.491-4.729-6.086-7.666-8.52-5.132-3.694-10.964-5.64-15.396-10.481-.529-.578-2.215-2.953-.999.279 2.055 5.463 3.459 7.539 8.16 11.086 4.172 3.147 11.173 7.445 12.749 8.98.985 1.092 2.024 2.166 2.132 3.616.43.304.519.734.824 1.092-.818 2.792.063 11.774.394 14.696.67 1.686 3.041 2.975 4.242 3.289.767.2.934-.083.424-1.308-1.219-2.929-1.761-5.691-1.936-6.566-.45-2.246-.213-4.661-.275-6.817.43-2.685-.376-5.263.448-7.93.967-2.327.197-4.726 1.164-6.963 0 0 3.498-5.36 5.37-7.445.768-.855 1.602-1.611 2.81-1.698 3.316-.238 14.566-2.292 12.468-1.726 6.501-1.661 9.041-4.483 12.432-7.091.261-.201.474-.479-.447-.427-.072.004-4.479 1.341-7.432 1.959-.058-.072-11.607 1.601-16.766 2.823.43-1.235 2.051-4.926 2.386-5.417.201-.294.515-.427 1.106-.186 1.111-1.056 1.164 1.217 2.454.519.43-.591.86-.233 1.343.125.896.268 1.487-.358 2.06-.895.305.519.394 1.181.967 1.539.394.054.914.34 1.236-.054.448.215.914.429 1.54.25.985-1.038 2.49-.036 3.421-1.36l1.29.143c.502-.179.358-.752.573-1.11.34.197.734.287 1.111.268.878.018.322-1.36 1.218-1.235 1.343-.519.967-1.683 1.039-2.828.448.519.448 1.396 1.146 1.611.857-.017.627-1.339 1.392-1.254.051.006 1.416.108 1.331-1.073-.448-1.128 1.075-1.038 1.469-1.862.287-.734.484-1.253.072-2.005.963-.054 1.057-.752 1.093-1.217-.179-.841.305-1.128.842-1.683.34-.412-.412-.859.125-1.145.43-.591.43-1.235 1.039-1.683.197-.519-.072-1.002-.322-1.414.376-.519.86-1.253.573-1.933zm-59.883 35.08c-2.349-2.28-4.207-4.809-5.955-7.427-.419-.801-.929-1.585-.983-2.511 1.521 1.752 3.464 2.908 5.142 4.614.352.358 9.608 7.857 10.063 8.172 2.555 1.772 4.905 3.766 7.085 6.004.255.409.565.784.71 1.211-2.149-2.244-8.441-4.826-16.062-10.062zm16.062 12.062c-.415-.919-.791-1.763-1.386-2.51-.326-.408-2.614-2.49-2.614-2.49 1.197.253 3.44 2.709 3.536 2.817.358.402.438.976.464 1.529v.654zm-.021-3c-1.914-3.37-5.335-5.448-8.171-7.928-2.96-2.305-6.026-4.575-8.809-6.793v-.279c4.555 2.27 13.915 7.697 16.589 13.411.169.361.496 1.362.39 1.589zm40.165-53.976c.337-.107.45.16.543.392-.094.178-.208.604-.156.64.359.253 1.126.3.831.892-.581.57-1.312.73-1.967 1.104.319.285 2.698-1.478 3.11-.196.225.374-.094.712-.262 1.015-.468.463-1.012.712-1.555.962-.056.124.056.178.131.267.656-.071 1.555-.855 1.949-.196.319.57.319 1.461-.056 1.995-1.645 2.506-6.587 2.059-8.226 1.923l-.543.178c.037-.481-.037-1.229-.206-1.781 1.479-.385 3.074-.628 4.287-1.498.078-.056-.445-.033-.839.073-1.274.303-2.792.41-4.122.712-.226-.611.208-.977.695-1.339.322-.239 5.189-3.149 6.388-5.143zm-3.59-4.698c.546.803-.678 3.213-.753 3.58l.207.052c.584-.698 1.186-1.414 1.224-2.322.437-1.125 1.871.064 1.487 1.327-.433.611-.81 1.432-1.563 1.764 0 .053-.019.157.075.175.678-.262 2.241-2.13 2.241-2.13.49.227.452.751.527 1.187-.532 1.746-2.073 3.208-3.805 4.22-.658.384-2.71 1.595-3.105 1.822-.32-.367-.659-1.187-1.28-1.135.056-.506 2.542-2.2 2.975-2.951-.038-.07-.132-.07-.207-.07-.81.908-1.939 1.624-3.05 2.148l-.527-.943c1.186-2.462 3.37-4.191 3.86-6.915.527-.21 1.186-.192 1.695.192zm-56.494-6.879c.124-.63.792-.608.891.157.257 1.403-.566 1.537-.853 1.305-.148-.383-.099-1.012-.037-1.462zm-.035-1.877c.173-.817.974-.699.974 0 0 .512-.077 1.114-.372 1.292-.264.42-.744-.141-.603-1.292zm1.259 4.451c.318-.078.636.078.716.364-.08.273-.159.611-.477.611-.186.013-.411.013-.477-.182-.053-.273-.133-.728.239-.793zm1.215.98c.187.355.524.221.499.886-.075.399-.037.908-.275 1.107-.3.066-.562-.354-.724-.797.012-.443.137-1.13.499-1.196zm.196-1c-.305-.107-.721-.285-.694-.784 0 0 .804-.571.999.142 0 .143-.028.606-.305.642zm.718 0c.212.04.475.067.587.28-.137.917-.708.83-.999.441-.012-.307.162-.588.412-.721zm-.358 3.358c.073-.203.334-.19.48-.317.334-.177.407.266.465.456 0 .266-.145.558-.523.494-.218-.076-.625-.317-.421-.633zm.948-1.647c-.031-.293.169-.51.445-.688.322-.102.521.153.552.408-.061.204-.077.433-.337.548-.261.064-.537-.013-.659-.268zm.004 3.445c-.013-.462.163-.832.364-1.156.214.254.39.67.628.74-.101.462-.113 1.133-.452 1.249-.251.093-.603-.393-.54-.832zm12.745-7.384c-.325.546-.93.083-.702-1.094.151-.547.853-1.134.95-.142-.014.365.055.972-.248 1.235zm-.571.228c.336.151.711.185.802.723.078.538-.116.924-.375 1.277l-.608-.118c.444-.482.026-1.462.181-1.882zm.816 4.072c-.045.627-.596 1.317-1.26.665-.258-.174-.608-.434-.737-.694.737-.139.756-1.302 1.604-.99 0 0 .433.466.393 1.019zm11.838 4.746c-.037.073-.76-.005-1.009.101-.444.189-.848.638-1.172 1.017-.866-.038-1.714-.172-2.526-.42l-.126.21c.663.597 2.162.273 2.528.912.103.179.124 1.13.07 1.359-3.734.113-10.88-3.159-10.592-5.841.992 1.031 2.274 1.756 3.5 2.119v-.133c-1.157-.774-2.507-1.481-3.353-2.728-.051-.075.148-.53.371-.385 3.954 2.568 7.569 4.127 12.473 2.903-.23.258-.054.666-.165.886zm11.096 10.95c-.162.347-.471.179-.746.233-.267-.176-.173-.422-.147-.677.191-.255.564-.371.941-.304.029.255.042.426-.048.748zm.069 1.717c-.177.23-.33.572-.659.508-.243-.042-.45-.404-.277-.652.204-.147.396-.448.701-.301.117.124.242.238.234.445zm-.04-3.308c-.039.491-.279.818-.572.824-.289-.217-.448-.754-.366-1.278.138-.34.265-.864.523-.686.243.387.571.453.416 1.14zm-.936-2.855c.168-.206.409-.371.719-.306.192.053.32.368.226.562-.158.299-.523.537-.833.367-.211-.186-.113-.412-.112-.622zm.938-.321c-.356-.006-.837-.252-.962-.646 0-.466.25-.842.678-1.021.688-.601 1.512-.43 1.282.862-.137.4-.583.645-.999.805zm-1.044.596c-.288.232-.738.464-1.269.389-.622.052-1.008-.455-.154-.901.712-.279 1.816.196 1.424.512zm-1.918 4.785c.281-.278.83-.414 1.353-.375.293.168.678.357.645.615-1.113.719-1.923.284-1.998-.24zm.917 2.281c-.167.158-.314.363-.575.335-.231-.075-.389-.288-.328-.588.152-.288.428-.386.738-.409.299.071.295.411.166.663zm.19-3.663s1.042.084.875.698c-.07.1-.325.407-.605.265-.236-.257-.542-.631-.27-.963zm-.152-.844c-.379 1.436-1.658.71-1.954.224-.012-.471.4-.948.733-1.262.521-.401 1.488.297 1.221 1.038zm-1.341.874c.288.105.452.399.363.672-.206.178-.446.408-.693.24-.151-.088-.325-.207-.274-.399.103-.248.282-.657.604-.513zm-.83 2.07c.044.483.363.706.136 1.238-.185.26-.313.723-.57.655-.268-.242-.353-.855-.349-1.387.148-.359.464-.81.783-.506zm.094 2.6c-.162.245-.456.435-.718.174-.127-.187-.304-.627.051-.809.182-.148.382.004.575-.034.374.016.162.463.092.669zm-.876 1.417c-2.751 1.839-5.296 5.064-8.735 4.874-.378-.104-.757-.243-1.049-.555-.31-.295-.206-.728-.12-1.006.55.017 1.204-.208 1.616-.624-.688.035-1.41-.035-2.167-.191-.258-.52-.567-1.179-.378-1.752.086-1.041 2.476-.295 2.854-.485-.224-.364-2.442-.711-2.975-1.127-.155-.677.103-1.318.361-1.873 2.614.382 5.245-.728 7.738-.26l1.616.07c-.017.538.224.954.499 1.37 0 0-2.623 1.473-3.735 1.455-.078-.001-.124.286.018.301.236.025 2.755-.871 3.838-1.131.224.312.31.676.619.937zm.993-5.896c-.148.435-.388.718-.666 1.02-.259-.076-2.626-.529-3.274-.208.721.34 1.683.473 2.534.68.684.265.573.737.666 1.361-1.979.869-8.563 1.134-9.987.756-.425-.378-.481-.756-.333-1.285l.129-.151c-.24-.34-1.054-.51-.721-1.077 1.332.246 2.367.586 3.717.737.074-.075.185-.151.148-.264-1.239-.529-2.663-.567-3.81-1.285-.24-.605-.684-1.455-.129-2.041.555-.227 1.554-.151 2.127-.075.832.208 1.775.605 2.608 1.02l.129-.132c-1.184-.813-2.626-1.493-4.124-1.493-.351-.491-.203-1.021.055-1.512.407-.51 1.091-.151 1.535-.132 2.996.624 9.654 3.383 9.395 4.082zm-13.426-.427c-.179 1.178-1.668 1.545-2.311.865-.547-1.458 1.564-1.398 1.616-2.19.101-1.746-1.325-2.561-2.398-3.549-.217-.199-3.528-4.18-5.039-5.928l-.434-.718c.087-.184.348-.257.556-.276 3.708 4.319 5.844 4.87 10.27 5.704-.156.405.087.957.174 1.454-.539-.037-1.199.018-1.686.331-.834-.331-1.668-.699-2.381-1.38l-.122.129c.398.798 1.376 1.024 1.981 1.531 1.304 1.133.052 1.763-.104 2.039-.174.607-.382 1.362-.122 1.987zm-11.376-18.034c-.132-.352-.264-.822-.145-1.268.013-.259.145-.47.29-.493.25.117.475-.023.606.493.23 1.382-.274 1.835-.751 1.268zm.805 1c-.072.424-.014 1.012-.362 1.201-.232.165-.507-.236-.623-.612-.133-1.238 1.067-2.001.986-.588zm.919-.312c-.338.903-.763.566-.904-.091-.05-.457.075-.822.226-1.142.364-.662.991.32.678 1.233zm.415-3.44c.494-.15 1.006 1.424.38 1.918-.472.324-.457-.531-.654-.832-.137-.393-.015-.924.274-1.086zm-.84 5.035c.512-.185 1.068.231 1.358.741.712 1.184-1.267 1.767-1.848.509.089-.463-.022-.995.49-1.25zm2.033.955c.465.387.507.992.465 1.462-.169.336-.634.42-.994.538-.465-.118-.994-1.025-.994-1.025.571.235 1.395-.958 1.522-.975zm.126-3.003c-.345.045-.62-.357-.648-.894 0-.447.152-.85.4-1.051.441-.224.62.313.593.894.041.469-.097.849-.345 1.05zm.352 1.309c0 .287-.193.599-.58.695-.387-.024-.338-.323-.419-.527-.033-.519.999-.663.999-.168zm-.094-4.311c-.338.024-.609-.024-.811-.181-.27-.241.113-.458.248-.687.56-.504 3.072.652.563.868zm-.937-1.994c-.425-.039-.806-.468-.962-.781-.067-.449.38-.8.559-1.132.627-.332 1.208.351 1.365.781.291.566-.403 1.014-.962 1.132zm-.983 1.593c.076.21-.182.267-.273.407-.319-.028-.561-.042-.713-.351.091-.844.889-.868.986-.056zm-1.45-1.593c-.222-.013-.445-.152-.534-.316-.03-.38.193-.595.593-.684.163 0 .296.152.37.266.148.291-.222.557-.43.734zm-.552 1.368c.066.272-.082.516-.362.616-.263.057-.494-.043-.593-.258-.132-.33.214-.487.362-.716.28-.057.527.143.593.358zm-1.152-.477c-.175.028-.318.142-.509.099-.754-.398-.039-1.381.621-.823.127.241.016.511-.111.724zm-.303-1.911c-.322.085-.556-.114-.527-.412-.029-.256.176-.511.424-.568.263.071.424.17.571.412.029.312-.234.455-.468.568zm-.53 3.559c-.07.184-.07.41-.313.453-.243.028-.47-.014-.626-.198-.139-.255-.017-.538.139-.764.383-.127.8.17.8.509zm-.435-1.542c-.226 0-.543.04-.565-.218.068-.297.136-.732.565-.771.271-.06.339.198.407.356.113.297-.136.534-.407.633zm-.584-1.619c.08.328-.107.564-.387.617-.294.039-.548-.197-.574-.472-.168-.577.801-.75.962-.144zm-.596-2.373c.157.014.55-.096.615.246-.026.219 0 .629-.34.738-.249.041-.497-.055-.602-.301-.17-.301.065-.615.327-.684zm-.573 4.362c.07.335.321.893.098 1.273-.153.134-.265.447-.502.335-.307-.357-.516-.982-.348-1.608.153-.491.571-.491.753 0zm1.171 4.952c.073.299-.091.666-.528.679-.164-.054-.419-.081-.455-.244.073-.258 0-.611.382-.733.346-.095.473.136.601.299zm-2.752-5.418c-.251-.26-.239-.8-.226-1.141.104-.387.652-1.374.942-.22.235 1.196-.374 1.683-.716 1.361zm1.43 4.067c-.638.206-.933-.703-.34-.962.461-.099 1.07.749.34.962zm-.661.264c-.016.273.066.625-.295.742-.262.091-.705-.091-.705-.378.098-.221.082-.56.475-.599.197.039.393.065.525.234zm.259 3.609c-.234-.349-.378-.93-.126-1.338 1.041-1.928 1.219 2.346.126 1.338zm-.187 1.868l.382-.712c.34.435.892.672 1.528.574.064.573-.021 1.226-.594 1.423-.425.02-.658-.06-1.083-.218-.297-.217-.382-.712-.233-1.067zm1.14-1.754c-.268-.206-.251-.546-.117-.74l.351-.218c.368.158.703.449.485.776-.117.231-.469.267-.72.182zm.317-2.962c-.193.046-.434-.341-.518-.751-.048-.432.072-.819.217-1.047.398-.683.916.569.735 1.138-.072.341-.277.501-.434.66zm.604.319c.272-.687.631-.111.805.399.21.665-.161.998-.396 1.286-.173-.022-.309-.244-.446-.399-.186-.377-.062-.909.037-1.285zm1.364 1.685c.25.039.384.157.484.328.083.315-.117.564-.417.656-.267.066-.45-.079-.55-.236-.083-.328.234-.577.484-.748zm-.465 2.764c.047-.827.699-.424 1.259-.763.396-.021.49.509.676.763.14.551-.186 1.06-.676 1.23-.581.066-1.473-.372-1.259-1.23zm.393-5.806c-.324-.401-.453-1.014-.421-1.533.129-.236.291-.354.469-.425.534.142.598.872.469 1.533-.129.118-.243.613-.518.425zm1.014 3.101c.247-.198.48.161.549.309.055.198-.082.42-.247.581-.288.136-.617-.012-.741-.272.082-.235.137-.556.439-.618zm.585 1.436c.548.138 1.077-.217 1.55-.494.717.441.478 1.644-.34 1.916-.17.099-.473.099-.605.059-.605-.257-.68-.948-.605-1.481zm4.404 6.802c.11-.071.055-.213.073-.32-1.095-1.207-1.981-3.373-1.789-3.977.767 1.349 3.628 4.025 3.919 4.306 1.593 1.539 3.659 2.492 4.369 4.713-.037.568-.365 1.03-.913 1.207-.694-.071-1.004-.763-1.515-1.136-.219.373 1.387 1.722.858 3.444-.164.639-.675 1.189-1.314 1.403-.73-.479-1.26-1.278-1.588-2.042-.11-.053-.183.071-.256.124.037 1.119 1.661 2.166.529 3.196-.548.621-1.296.941-2.118.71-.566-.106-1.022-.586-1.442-.905.73-.462.11-2.113 1.387-1.722 2.3-1.935.456-4.669-.201-6.764-.572-1.083-1.156-2.165-1.701-3.267-.116-.236-.691-2.148-.727-2.947.42.604 1.899 3.622 2.428 3.977zm1.073 12.577c1.164-.219 1.632-1.334 2.188-2.302.834-.037 1.407-.585 1.876-1.243.139-.274.139-.713.313-.858.471.08 1.261-.022 1.754-.453.07-.062.313.051.365.197.104.402.903.512.504.987-.087.621.104 1.169.573 1.498-.99.968-.382 2.448-.382 3.489-.365.457-.365 1.133-.243 1.717.174.585.59.95.99 1.37-.052.603.069 1.279.382 1.791.382.219.712.621 1.181.658l-.052.256c-1.562 1.014-5.173 4.652-5.818 8.02-1.754-3.727-5.748-14.707-6.13-16.114.712.786 1.615 1.041 2.501.987zm9.915 7.135c.32-.075.245.393.471.543.32.562 1.263.187 1.093 1.067-3.675 1.947-5.315 5.711-6.238 9.382-2.075-2.578.436-7.834 4.674-10.992zm-1.412 4.576c.59-.571 1.232-1.179 1.996-1.584-2.604 2.725-2.951 6.888-4.999 10-.035-2.983 1.007-6.04 3.003-8.416zm2.806-1.072c.283-.317.627-.502 1.12-.319.238-.07.659-.123.988-.193.293.474.439 1.177 1.116 1.336l.933-.123c.311.826 1.318 1.195 2.032 1.195-1.281 3.023-2.581 6.045-4.082 8.98-2.065.832-1.292 3.034-2.313 4.527-.164.24-2.61 3.75-3.873 5.086-.165-3.005.11-6.959-.732-10.298.879-3.093 4.441-9.778 4.81-10.19zm4.471-.561c-.951.198-1.313-.216-1.745-.959.483-.373 1.095-.941 1.485-1.403l-2.951 1.154c-.26-.249-.353-.568-.39-.906.334-.284.909-.479 1.262-.764-.223-.266-.52.053-.798.124-.65.284-1.411.053-1.949-.32-.148-.302-.278-.675-.13-1.012 1.432-.149 2.838-.61 4.064-1.415.236-.155 2.358-1.64 3.23-2.102.872-.462 1.745-.959 2.673-1.35.278.977-2.172 3.303-2.747 3.836.09.111.187.136.285.117.183-.036 2.165-1.751 2.852-2.603.167.142.589.677.578.696-1.533 2.504-3.324 5.089-5.719 6.905zm3.991-9.985c-.229-.095-.37-.497-.191-.656.125-.209.374-.277.63-.31.097.227.117.504.289.663-.216.148-.421.436-.728.303zm2.17.398l.692-.364c.021.496.317.943.866 1.171-.27.471-.698.931-1.252.809-.34-.188-.477-.36-.718-.685-.109-.309.1-.729.413-.931zm-.442-.786c-.011-.5.123-1.163.433-1.381 1.374-1.141-.146 3.117-.433 1.381zm2.444-.534l.426-.044c.172.308.223.723-.178.927-.254.159-.552.036-.685-.153-.06-.308.195-.612.436-.73zm10.087-9.043c.228-.017.591.222.427.511-.136.292-.375.44-.671.488-.26-.095-.303-.398-.284-.63.025-.243.314-.281.528-.369zm-.028-.98c.731-.176.558.821.097.979-.263-.03-.309-.083-.566-.237-.157-.401.244-.519.468-.743zm1.928 3.799c-.24.174-.548.245-.828.109-.308-.29-.797-.585-.525-1.149.224-.393.538-.749.947-.775.729-.085 1.55.987.405 1.815zm.457 2.603c-.18.568-.818.623-1.252.554-.446-.211-.81-.712-.549-1.169.215-.544.696-.79 1.16-.808.695.094.908.835.641 1.422zm-8.62 1.607c.191-.049.364-.031.533.015.377.296.159.652-.188.892-.147-.004-.421.169-.572-.036-.112-.321.01-.652.227-.87zm-.269-1.478c.055-.265.331-.439.598-.552.38.065.515.485.298.757-.172.117-.317.299-.534.226-.208-.083-.357-.216-.361-.432zm1.317-.568c-.161-.124-.407-.261-.283-.514.209-.241.494-.612.82-.414.225.093.134.372.096.557-.081.34-.386.427-.633.371zm1.683-.553c-.04.275-.277.45-.493.569-.148-.066-.32-.041-.44-.177-.344-.733.751-1.215.934-.392zm-.029 2.196c-.112.277-.373.417-.651.361-.24-.085-.359-.294-.307-.537.095-.362.458-.323.711-.451.253.094.325.401.248.627zm-.703.555c.089-.191.26-.234.384-.117.167.328.391.427.341.959-.234 1.307-.779 1.192-.993.295 0-.402.036-.897.268-1.138zm.033-3.202c-.309-.112-.388-.429-.197-.681.119-.248.428-.359.662-.265.174.219.249.403.233.707-.151.3-.444.274-.698.239zm1.204-3.959c.731-.176.558.821.098.979-.263-.03-.309-.083-.566-.236-.158-.401.244-.519.468-.743zm-.498 4.375c.205-.386.505-.472.866-.336.125.09.136.312.125.464-.061.365-.505.418-.771.475-.163-.136-.25-.394-.219-.604zm.05 4.317c.032-.455.344-.805.661-.692.493.301.334 2.094-.408 1.973-.54-.133-.196-.852-.253-1.281zm1.342-1.713c-.251-.188-.447-.326-.387-.663.59-.66 1.276-.267.864.464-.064.216-.315.129-.477.199zm.717-2.425c-.302-.524.033-1.23.557-1.482.853-.376 1.364.46 1.326 1.125-.277 1.288-1.567.667-1.884.357zm-.085 1.139c.24-.433.862-.513 1.238-.714.764.03.815.936.665 1.398-.124.652-1.024.692-1.587.506-.343-.254-.388-.832-.316-1.189zm.916 1.335c1.017-.491 1.928 2.824-.445 1.726-.315-.156-.494-.39-.5-.76.026-.545.585-.674.945-.966zm-.417-8.05c.172-.007.504.407.469.56-.095.321-.372.35-.61.44-.266-.109-.43-.307-.378-.609.084-.28.316-.309.519-.391zm-.025-.979c.731-.176.558.821.097.979-.263-.03-.309-.083-.566-.237-.157-.401.244-.519.468-.743zm-.64 4.418c-1.005 1.288-2.093.075-1.822-.8.283-.289.6-.669 1.034-.636.79.014 1.138.8.788 1.437zm.112-3.216c-.297.454-.774.984-1.373.695-.265-.186-.72-.526-.576-1.075.112-.825.816-.645 1.293-.842.334.186.789.692.656 1.223zm-2.001 1.354c-.132.162-.319.508-.644.405-.218-.107-.366-.325-.324-.583.018-.339.364-.46.606-.368.118.1.484.233.363.546zm-1.94-.813c-.157-.401.244-.519.468-.743.731-.176.558.821.098.979-.263-.03-.309-.083-.566-.237zm1.91-2.149c-.305.249-.809.425-1.412.378-.669-.134-.602-.422-.376-.7.358-.151.855-.393 1.338-.248.285.072.642.343.449.57zm-1.977 5.051c-.122.307-.418.399-.687.292-.273-.124-.352-.449-.215-.685.191-.554 1.116-.181.902.393zm-.972-3.024c-.091.24-.312.308-.537.359-.235-.089-.438-.336-.459-.617.109-.199.258-.342.486-.376.391-.065.543.343.51.634zm-.032-2.046c-.172.227-.413.458-.734.394-.168-.19-.305-.474-.183-.701.088-.25.344-.309.558-.283.172.112.504.28.359.589zm-.964 2.048c-.214.21-.329.401-.669.347-.313.03-.379-.345-.3-.559.175-.302.475-.439.796-.431.265.138.118.425.173.643zm-.483 6.362c.547-.081.611.769.284.921-.165.112-.389.067-.571.05-.179-.088-.268-.396-.216-.627.09-.22.31-.325.502-.345zm.832-2.911c.309-.282.671.104.65.696-.061.354-.045 1.067-.375 1.189-.181-.026-.39.141-.554-.175-.136-.592-.091-1.325.279-1.71zm-.907 4.973c.449-.321.571.573.557 1.21-.032.815-.453.715-.743.721-.14-.204-.186-.546-.252-.828-.038-.532.235-.873.439-1.103zm-1.11-2.08c-.656-.1-.247-1.021.411-.987.438.116.323 1.121-.411.987zm1.624-1.88c-.02.469-.524.579-.793.838-.471.184-1.014-.131-1.164-.519.06-.524.368-1.079.806-1.418.563-.073 1.393.316 1.15 1.099zm-1.123-5.394l-.476.286c-.109-.177-.459-.279-.329-.53.079-.128.283-.3.44-.441.408-.172.747.46.365.684zm.72 1.322c.391.065.366.299.447.51-.516.605-2.314.639-1.952-.094.423-.202.878-.565 1.505-.415zm-.8 6.972c.304.071.248.341.235.549-.137.307-.484.568-.801.381-.081-.125-.244-.266-.166-.432.214-.203.386-.56.732-.498zm-1.408 5.291c.531-.672.821.001 1.477.002.334.185.094.678.094.988-.215.535-.784.796-1.283.689-.511-.241-.974-1.066-.288-1.678zm.92-1.313c-.239-.072-.284-.305-.259-.508.145-.359.536-.439.829-.477.161.165.185.347.152.563-.136.347-.442.486-.722.422zm1.167 2.015c.366.449.968.462 1.485.508.346.812-.457 1.705-1.246 1.447-.186-.017-.426-.2-.512-.313-.351-.586-.059-1.227.273-1.641zm1.008-1c-.31-.034-.485-.349-.43-.653.205-.169.439-.431.716-.322.314-.045.288.409.255.581-.073.21-.315.337-.541.393zm-1.376-9.472c-.209-.489.143-.977.372-1.28.393-.256 1.812-.629 1.526.725-.394 1.339-1.594 1.19-1.898.554zm1.941 6.851c.269-.648 1.349-.395.876.226-.176.162-.308.467-.611.379-.214-.041-.293-.369-.265-.604zm.002 2.321c.176-.305.281-.77.589-.692.288.13.419.741.402 1.282-.023 1.278-1.095.674-.991-.59zm2.971 1.3c.123.688-.287 1.37-.673 1.856-.397.267-.869.09-1.272.011-.322-.396 1.821-1.922 1.945-1.867zm-.948-3.602c.186-.233.596-.329 1.02-.39.96-.099 1.381.687.355.926-1.059.221-1.535-.163-1.375-.536zm.123 1.859c.294-.525 1.081-.163.779.322-.175.281-.496.492-.816.398-.247-.211-.032-.481.037-.719zm2.837 1.973s.098.713-.317 1.223c-.471.579-1.472.911-1.665-.123-.13-.325 1.38-1.918 1.982-1.1zm-.92-3.95c.137-.2.374-.306.62-.276.397.114.366.441.167.687-.113.23-.333.333-.579.303-.27-.147-.352-.461-.208-.714zm2.339 1.719c.317.374.756.677.527 1.197-.244.511-.726.694-1.265.803l-.671-.545c.848-.081.954-1.215 1.409-1.455zm.149-.895c.528-.196 1.809-.145 1.34.391-.237.173-.511.506-1.069.489-.758.112-1.28-.41-.271-.88zm.475-.636c-.143-.786.202-.97.425-1.398.294-.25.659.193.505.852-.113.37-.113.97-.37 1.068-.263.032-.472-.008-.56-.523zm1.43-1.547c-.521-.251-.482-.783-.443-1.235.129-.183.355-.543.67-.635.818-.25 1.66.417 1.157 1.211-.239.537-.831.903-1.385.658zm-4.399-20.725c.349-.392 1.027-.142 1.248.249.061.382.227.273.413.108.152-.136.945-.286.982.088.073.605-.422 1.21-.33 1.797.44-.178.807-1.993 1.321-2.046.495.018 1.064.143 1.248.64-.11.783-.257 1.566-.66 2.242.073.053.147.178.257.125l.991-1.921c.422-.267.734.213.991.32 2.006 2.251-2.905 6.864-3.633 8.202 0 0-1.664-.583-1.53-.915.16-.397 1.347-2.59 1.604-3.32-.073-.036-.092-.16-.202-.124-.55 1.317-1.229 2.224-2.11 3.398-.55-.107-1.303-.107-1.651.249 2.458-3.723 1.413-7.65 1.064-9.091zm-7.229-.307c.228-.215.589-.09.893-.126-.133 1.328.152 2.961.551 4.325l.133-.126c-.275-1.451-.783-5.889 1.444-4.791 1.045.915 1.102 2.297 1.216 3.625-.076.072.266.251.342.197-.133-1.095.019-2.172-.19-3.176.494-.233 1.178-.61 1.71-.179 1.539 2.1 1.121 4.863.532 7.161-.228.861-.874 1.382-1.026 2.261-.418-.036-1.045 0-1.292.449-.526-.219-.579-.675-.541-1.182.044-.574-.181-3.197-.695-3.717-.095 1.562.513 3.015 0 4.576-.551.054-1.083.305-1.368.79-.171.108-.456-.179-.684-.269-.57-1.382-3.173-8.435-1.026-9.817zm-8.825 4.179c.453-.347.85-.802 1.436-.802.378 1.058 1.058 1.969 1.757 2.899.302-.401-.93-2.233-1.034-2.835-.104-.602-.043-1.212.298-1.705.246-.31.737-.383 1.02-.255 1.247.693 1.398 2.224 2.248 3.209l.132-.128c-.34-1.185-.982-2.333-1.02-3.537.189-.456.548-.602.944-.857.642-.255 1.209.383 1.492.857.189.547 1.908 9.189 1.7 9.644l-1.209-.073c-.567-1.203-1.379-2.297-1.776-3.464 0 0-.163.182-.124.346.267 1.15.996 2.306 1.277 3.519-.359.383-.737.583-.68 1.112h-.604c-2.385-1.965-6.083-6.91-5.856-7.931zm4.99 8.245c-.149.381-.578.635-.596 1.053-1.249-.309-2.46-1.125-3.634-1.833l-.13.127c1.118.889 2.199 1.96 3.634 2.359-.186.363-.596.744-.82.98-.354-.145-6.411-2.359-9.319-3.013-.28-.363-.056-.853.075-1.234.331-.894 2.74.781 3.69 1.053l.13-.145c-.707-.512-4.207-2.325-2.553-3.648.298-.417.857-.454 1.267-.399.634.2 2.758 1.869 3.299 2.287.056-.073.186-.145.13-.254-1.1-.853-3.038-1.779-2.553-3.394.335-.599.708-1.089 1.416-1.252.522 1.052 5.069 5.753 5.964 7.314zm-7.116-12.049c-.36.562-1.134.738-1.476 1.194.198.299 1.458-.404 1.799-.685.306.404.288.913 0 1.317-.81.737-1.853.896-2.771 1.335v.123c1.08.088 2.267-.544 3.239-.949.198.369.45.808.252 1.265 0 0-1.602 2.058-10.167.632-1.458-.246-2.573-1.405-3.761-2.142l.072-.193c1.584 1.036 3.293 1.405 5.183 1.581-.072-.369-3.653-1.282-4.805-2.143 2.555.984 5.111.299 7.774-.14 1.656-.351 3.311-1.212 4.607-2.459.018.422.234.843.054 1.265zm-2.241-4.087l.323.622c.502.813-1.774 1.539-1.81 1.936.86-.104 1.756-.501 2.526-1.003.305.155.394.571.251.882-2.87 4.007-10.557 3.778-11.933 2.732.287-.225.753.173 1.165.121.985.277 1.953-.276 2.974-.311l.125-.121c-.358-.277-3.207-.086-3.673-.242-.047-.318.2-.27.441-.254 1.394.093 7.544-1.604 8.844-4.118.173-.334.347-.619.767-.244zm-2.409-3.176c.471-.034.435.455.526.725-.254.674-.907 1.264-1.305 1.82.326.101 1.704-1.786 2.538-1.28.073.488-.399.842-.653 1.162-2.246 1.832-4.462 3.33-8.34 3.572.091-.488.091-.842 0-1.331 2.885-.654 4.778-1.458 7.234-4.667zm-3.381-2c.649-.035.172.603.401.958-.134.479-.763.763-.82 1.278h.267c1.011-.444.954-2.183 2.27-1.793.343.266-.439 1.118.477.763.153-.142.343-.177.553-.053-.634 2.042-2.903 3.246-4.894 4.151-1.056.48-1.839.694-1.839.694l.286-.887c1.278-.249 2.46-.959 3.3-1.917-.706 0-1.278.71-2.003.887-.61.124-1.698.816-1.85-.248.21-.816 2.956-3.319 3.853-3.833zm-3.494-1.001c.269.336.063.69.284 1.08.379-.248.679-.673 1.138-.708.916.619-1.296 3.275-1.991 3.628-.727-.867.6-1.398.806-1.965l-.126-.124c-.442.319-.822.779-1.296.956.047-.442-.095-.779-.174-1.15.569-.513.853-1.186 1.359-1.717zm-1.455 4.504c.014.394.209.853 0 1.181-.237.284-.445.459-.696.153-.39-.459-.125-.941-.056-1.488.195-.481.682-.503.752.153zm-.918-1.737c.062.549-.086 1.141-.407 1.226-.308.063-.456-.381-.579-.761 0-.211-.012-.613.099-.846.283-.613.863-.507.887.381zm-1.38-2.667c.672-.313 1.276.146 1.366.752.157.543-.381.94-.806 1.128-.515.083-1.12-.104-1.142-.606-.112-.543.179-1.003.582-1.274zm-2.219-.923c.609-.464 2.021-.017 1.499 1.286-.11.274-.344.498-.683.536-.46-.074-1.087-.056-1.192-.669-.042-.446.021-.911.376-1.153zm.501 2.481c.516 1.242-.905 1.412-1.345 1.319-.551-.281-.683-1.06-.397-1.557.485-.779 1.389-.346 1.742.238zm-1.601-2.493c.196-.262.671-.262.699.358.056.597-.07 1.074-.308 1.456-.294.119-.518-.31-.643-.692-.126-.406.112-.764.252-1.122zm-1.287 2.748c-.052 1.6-.862 1.187-1 .322.036-.39.06-.873.253-1.08.337-.414.711.046.747.758zm-.741-3.877c.147-.11.666.041.719.193.093.331-.133.524-.293.745-.293.069-.546 0-.666-.29-.08-.289.107-.455.24-.648zm-.354 2.876c-.262.106-.341.085-.681.085-.419-.254-.131-.551-.079-.847.55-.508 1.074.403.76.763zm-1.093-2.896c.389-.066 1.045.044 1.188.548-.041.549-.205 1.272-.881 1.426-.328.022-.901.044-1.045-.483-.307-.724.41-1.031.737-1.491zm-1.667 2.133c.55-.508 1.074.403.76.763-.262.106-.341.085-.681.085-.419-.254-.131-.551-.079-.848zm-.161 2.231c.065.258-.078.438-.234.605-.247.052-.56-.051-.742-.283-.026-.232.013-.437.182-.592.286-.27.651 0 .794.27zm-.51-3.376c.171-.047.487.166.526.614 0 .543-.132 1.087-.434 1.346-.382.165-.513-.307-.566-.85.079-.425.171-1.063.474-1.11zm-.424 7.262c.238-.35.753-.46.898.306.145.394-.053.744-.092 1.094-.158.394-.515.416-.713.175-.145-.459-.185-1.072-.092-1.575zm-.439 1.731c.168.157.275.265.382.518.061.301-.29.325-.489.482-.321 0-.382-.205-.504-.386.015-.253.26-.494.611-.614zm-1.611-2.522c.105-.521.144-1.278.525-1.444.223-.142.328.189.473.426.052 1.119-.807 2.22-.998 1.018zm.334-5.476c.217 0 .608-.04.666.289-.014.276-.087.591-.405.71-.261-.066-.55-.223-.579-.473-.072-.249.116-.434.318-.525zm.114 2.001c.322-.048.368.501.552.763-.061.501-.046.882-.383 1.121-.261.334-.552-.143-.613-.525-.031-.596.153-1.073.445-1.36zm-.21 3.997c.33.039.634-.117.713.285.119.246.013.532-.238.7-.317.065-.621-.091-.713-.376.013-.233-.04-.545.238-.609zm-.256-.649c.073.304-.073.649-.455.649-.309-.055-.382-.276-.527-.442 0-.235.091-.469.4-.552.2-.042.527.152.582.345zm-.89-3.218c.263-.337 1.075.032.877.402l-.241.466c-.241-.096-.658-.016-.724-.289-.022-.145.044-.385.088-.578zm-1.983 1.588c.136-.809.579-1.1.876 0 .061.375-.073.788-.219 1.124-.17.177-.474.237-.657 0-.146-.355-.146-.769 0-1.124zm-2.109-3.123c.088-.083.176-.233.323-.183.11.047.323.233.367.481.293-.183.147-.664.469-.896.425.481 1.086 1.029.748 1.859-.425.365-.66.83-.69 1.378.029.249.279.564.103.764-.836-.896-1.32-2.058-1.32-3.402zm-3.075 2.402c.36.09.377.614.736.65.137-.145.12-.687.377-.452.36 1.265 1.455 2.62 2.654 3.126.034.325.137.632.308.903-.634-.018-1.336-.397-1.798-.903l-.12.181c.514.506 1.027 1.246 1.798 1.246.034.108-.244.251-.297.248-2.189-.115-3.312-2.222-4.583-3.898.154-.488.377-1.012.925-1.102zm-2.86 3.81l1.172 1.209.126-.149c-.379-.539-1.064-1.209-1.154-2.01.054-.465.559-.651.974-.465.487.372.361 1.247 1.028 1.47.09-.447-.51-1.409-.498-1.488.044-.288.412-.581.624-.187.992 1.954 3.066 3.647 5.068 3.963l.072.54c-2.347 0-3.643-.949-3.643-.949-.18.13-.198.242-.054.41 1.19.893 2.795 1.005 4.22 1.209-1.84.949-4.617.856-6.366-.41-1.046-.744-1.785-1.823-2.543-2.884-.161-.624-.243-1.613.974-.26zm-4.026 5.107c.731-.614 3.748.99 3.748.99l.146-.137c-1.261-.819-3.345-.871-3.693-2.697 0-.376.201-.768.585-.854.384.068 2.249 1.451 2.706 1.229-.512-.581-1.444-.7-1.846-1.417.256-.717.219-1.605 1.06-2.032 1.28 1.417 2.852 2.971 4.936 3.38 1.737.552 4.662-.427 4.662-.427l.146.547c-1.974.614-3.001 1.118-6.654.734-.065 1.03 4.926.644 6.91-.239l.256.307c-2.504 1.451-5.265 2.595-8.281 2.698-1.674-.161-3.104-.429-4.381-1.464-.272-.221-.411-.27-.299-.619zm1.438 7.348c1.397-.563 2.974-.683 4.264-1.485.036-.085-.09-.12-.125-.171-1.362.41-2.884.836-4.389 1.093-1.484.208-1.155-1.221-.914-1.707.95.034 1.684.427 2.723-.068-.788-.478-2.06-.051-2.849-.615-.502-.546.143-2.083.322-2.219 3.875 2.618 7.428-.124 12.254-1.093l.197.358c-1.738 1.11-3.493 2.134-5.554 2.527-.036.102.072.171.143.239 2.132-.307 4.085-1.195 5.805-2.39l.645.307c-1.832 1.38-5.124 4.299-8.463 5.5-.356.128-1.641.44-1.928.457-.663.017-1.559-.171-2.132-.734zm2.513 2.694c1.155.035 3.612-.872 3.63-.994-.44-.296-3.209.994-4.089.628l-.532-.628c.477-.244 1.137-.296 1.724-.436 3.887-.855 6.638-3.645 10.03-5.529.257.331.752.436 1.247.366v.192c-.55.663-4.602 5.947-7.133 6.593-1.568.452-3.98 1.339-4.804.506-.22-.157-.165-.506-.073-.698zm.01 1.641c3.14-.052 6.658-1.225 8.769-3.971.999-1.257 2.56-2.185 3.426-3.584.026-.041 1.103-.178.724.382-.74 1.277-1.425 2.414-1.696 3.901-1.462 2.257-2.779 4.688-4.872 6.42-.325.245-.83.315-1.227.193-.361-.193-.866-.56-.848-1.015.668-.315 1.407-.682 1.822-1.312-.054-.122-.18-.052-.253-.07-1.173.542-2.49 1.907-3.843.875-.415-.315-.505-.787-.451-1.312-.523-.07-1.119 0-1.552-.507zm6.228 6.4c-.766 0-1.513-.342-1.857-.992-.153-1.128-1.608-.051-1.934-1.231-.096-.41 0-.786-.536-.803-.383 0-.728-.188-.9-.496l.057-.478c.632.632 2.493.868 2.538.932.356.507.915.924 1.514 1.112.236.074 1.156.092 1.329-.028-.536.838 1.666 1.829-.211 1.983zm6.052 2.946c-.834-.425-.873-1.32-.252-2.125.88-1.141 1.35-2.457 1.791-3.772l-.125-.143c-.895 1.212-1.486 2.637-2.327 3.92-.902 1.032-1.617-.052-1.612-.68.011-1.204 1.654-2.126 1.683-3.418h-.125c-.626.98-1.253 1.799-2.005 2.744-.161.107-.447.107-.573-.053-.286-.214 0-.659-.197-.837-.251.143-.519.232-.841.196-.537-.374-.555-1.033-.698-1.479.555-.57 2.121-2.521 2.246-2.697 1.927-2.706 3.203-5.743 4.967-8.403.161-.196.322-.035.519 0 .036.463-.376 4.383-.716 5.648l.125.125.268-.321c.483-1.141 1.217-4.846 1.342-5.381.322.178.376-.303.644-.267-.036 1.621.072 3.26.591 4.811.195 4.362-1.882 12.945-4.707 12.134zm7.525-6.757l-.181.039-.381 3.889c-.236.504-.562 1.042-1.179 1.181-.254-.695.471-1.458.127-2.187-.453.555-1.251 2.708-1.759 2.882-.508.069-.961-.347-1.432-.573.073-.816 1.536-3.034 1.73-3.482 1.035-2.399 1.024-5.237.909-7.932-.029-.685.122-2.6.109-3.386-.001-.078.861-.633.97-.078-.091 1.545.635 2.934.653 4.514l.326.052c-.109-1.476-.308-3.073-.326-4.427-.199-.313.607-.945.679-.559.081.435 1.95 4.456 2.079 4.756 1.081 2.512 2.937 3.935 1.086 6.428-.181.226-.544.504-.78.313-.109-1.007-.236-2.049-.653-2.882-.381.503.149 2.792.072 3.343-.11.789-.411 1.558-1.051 2.039-.381.052-.725.174-1.033-.139-.199-1.25.49-2.695.036-3.789zm-3.393 24.667c-5.834-1.908-8.951-2.502-13.412-6.856 3.791 1.632 7.53 4.161 11.303 5.166 4.744.969 9.857 2.493 12.697 6.834-3.885-3.788-6.314-3.745-10.588-5.144zm24.881 2.918c1.093-.437 2.047-.735 2.395-.805 2.382-.448 15.493-2.509 19.094-3.298.322-.072.842-.072 1.218-.251-3.027 2.115-6.538 2.688-9.923 3.746-4.424.807-9.35 1.183-13.219 2.509-1.612.95-3.367 2.115-4.46 3.746.072.108.215.054.322.072 3.654-4.373 8.812-4.337 13.738-5.162 4.102-.502 8.365-1.595 12.18-3.549l.143.054c-6.028 4.065-8.391 4.296-13.217 5.109-.84.142-5.393.913-6.647.967-1.988.143-4.549.412-5.75 2.634-2.042 2.922-5.141 5.789-5.535 9.356-.233 1.559.036 3.298-.967 4.517-.106 2.105-1.029 15.494 1.934 21.561 0 0-2.132.394-3.421-2.402-.681-3.62-.354-12.272-.299-12.981.043-.544.161-1.06.496-1.465.215-.914-.09-1.774-.448-2.509 0 0-.205-6.002-.18-6.285.124-1.442.679-2.833.741-4.174.023-.5-.167-3.227-.318-4.126-.356-2.12-1.287-4.263-2.696-5.937-2.405-3.359-6.059-4.396-9.684-5.414-4.405-1.236-5.469-1.639-9.66-3.566l-2.131-1.147c1.522.358 6.383 1.202 6.912 1.273 2.162.29 4.46.767 6.504 1.487 4.621 1.541 9.672 5.144 10.317 10.324.304.161.563.115.512-.119-.737-3.426-2.751-6.3-4.059-9.487-1.397-3.817-5.982-13.935-5.929-16.202.358.126 1.003.126 1.343-.251.103.31 1.862 5.93 3.57 9.823 2.195 5.002 6.081 10.235 6.351 18.368.048 1.456.216 5.109.073 5.558-.77.95-1.164 2.079-1.164 3.352l.197.197c1.173-3.145 5.317-8.676 5.767-9.356.697-1.055 1.306-2.17 1.523-3.423.602-1.029 2.66-2.058 4.375-2.744zm-.263.145l-2.03 1.081c.338-.82 2.876-6.95 3.985-9 .056.317.414.484.677.615.32-.074.226.391.338.596-.902 2.329-1.974 4.491-2.97 6.708zm1.813-7.919c-.303 0-.353-.377-.488-.603.252-1.036.707-1.977 1.026-2.975h-.236c-.404.96-.841 2.109-1.514 2.768-1.039.488-1.632-.678-1.632-.678 1.851-1.732 5.805-7.513 5.805-7.513.236.252.242.783.103 1.468-1.504 3.093-2.906 7-3.064 7.532zm5.264.62c-.085-.69.136-1.31.051-1.931h-.051c-.682.69-.068 2.362-1.483 2.31-.41-.262-.581-.669-.642-1.12-.063-.468.455-1.966.097-2.242-.392.603-.572 2.508-.684 2.633-.414.457-1.087.094-1.395-.46.307-1.569.767-3.068 1.347-4.534.699-1.259 1.653-2.103 2.574-3.275l.614.362c-.392.965-.716 1.793-.852 2.862l.119.19c.494-.655 1.381-3.103 2.028-3.172.068.379-.409 2.565-.423 3.012-.054 1.782.067 3.705.593 5.125-1.028.88-1.892.242-1.892.242zm7.451.88c-.857-.669-1.076-1.617-1.514-2.472l-.182.204c.31.762.31 1.617.839 2.268-.328.39-.821.558-1.24.483-1.404-.651-1.477-2.435-1.842-3.681l-.201.26c.128 1.004.255 2.008.657 2.881-.164.297-.511-.074-.711-.205-1.003-1.636-1.623-3.718-1.259-5.689.383-.929 1.119-3.435 1.335-3.471.258-.043 1.164-.08 1.164-.08-.365 1.227-.109 2.324.201 3.476.456-.167.328-2.51.529-3.402.31-.13.917.309.921.362.105 1.471.909 2.93 1.049 4.527.383 1.45.693 2.937 1.696 4.146-.474.149-.839.558-1.441.39zm7.083-2.729c-.258.212-1.04.327-1.067.368l-.132.411c-.314.495-1.624.195-1.734.248-.166.248-.055.425-.129.761-.092.177-.295.442-.535.442-3.173-1.151-2.867-6.147-3.044-8.602.424-.248.535-.921 1.052-.372.221.708.941 1.327.664 2.159.092.071.148.177.277.124.351-.832-.092-1.664-.332-2.407.535.018 1.07-.495 1.458-.903 1.332 1.254 5.039 5 3.524 7.77zm5.169-5.274c-.251.548-.681.478-1.164.389-.305-.69-.502-1.345-1.218-1.788-.269.301.768 1.847.839 2.381.165 1.25-.454 1.674-1.058 1.464-.629-.219-1.099-1.764-1.465-1.81-.107.301.896 2.177.52 2.867-.555-.018-.824-.726-1.29-1.133-1.254-1.982-1.523-4.124-2.974-6l.52-1.275c.914.213 1.541 1.204 2.007 1.912 0 0 .098-.205.077-.312-.179-.905-.712-1.967-1.689-2.236.197-.318.555-.566.645-.956 1.928.49 5.083 1.534 6.252 4.903.09.495.376 1.133 0 1.593zm1.759-5.386c.017.938-1.883.383-.736 1.512.051.593-.291 1.129-.685 1.378-.856-1.416-1.78-3.119-3.15-4 1.472.326 2.619.44 4.143.287.325-.134.565.019.856-.287.051.613-1.233.498-.428 1.11zm1.182-1.721c.431 2.912-6.311 1.141-7.851.345l-.902-.385s.34-.993.713-.94c.088.012 2.887.289 3.925.002v-.192c-1.384-.269-2.732-.019-4.047-.499-.052-.46-.173-.863-.121-1.381 5.037-1.684 5.213.738 8.336-2.34l.121.767c.017.959-2.196 1.534-2.179 1.995.657.269 1.505-.172 2.179-.422.208.575-.069 1.113-.242 1.592-.709.594-1.626.575-2.369 1.036.415.48 2.352-.345 2.438.422zm0 0" transform="translate(77) scale(-1, 1)"/></svg>